{"title":"Mean Girls 2 2011 720p WEB-DL x264 SSloco","uid":11984900,"size":661638768,"categoryP":"video","categoryS":"hd___movies","magnet":"?xt=urn:btih:b38188952318bd38b5a2b1f5587b55b6e387dc45&amp;dn=Mean+Girls+2+2011+720p+WEB-DL+x264+SSloco&amp;tr=udp%3A%2F%2Ftracker.openbittorrent.com%3A80&amp;tr=udp%3A%2F%2Fopen.demonii.com%3A1337&amp;tr=udp%3A%2F%2Ftracker.coppersurfer.tk%3A6969&amp;tr=udp%3A%2F%2Fexodus.desync.com%3A6969","seeders":0,"leechers":0,"uploader":"myhoes14","files":1,"time":1433326893,"description":"Source:Mean.Girls.2.2011.720p.WEB-DL.AAC2.0.H264-RARBG\n\n\nMedia Info\n\n\nFormat : MPEG-4\nFormat profile : Base Media\nCodec ID : isom\nFile size : 631 MiB\nDuration : 1h 36mn\nOverall bit rate mode : Variable\nOverall bit rate : 910 Kbps\nEncoded date : UTC 2015-02-25 09:04:23\nTagged date : UTC 2015-02-25 09:04:23\n\nVideo\nID : 1\nFormat : AVC\nFormat/Info : Advanced Video Codec\nFormat profile : &lt;a class=&quot;__cf_email__&quot; href=&quot;/cdn-cgi/l/email-protection&quot; data-cfemail=&quot;4d05242a250d0179637c&quot;&gt;[email&amp;#160;protected]&lt;/a&gt;&lt;script data-cfhash='f9e31' type=&quot;text/javascript&quot;&gt;\n/* &lt;![CDATA[ */!function(){try{var t=&quot;currentScript&quot;in document?document.currentScript:function(){for(var t=document.getElementsByTagName(&quot;script&quot;),e=t.length;e--;)if(t[e].getAttribute(&quot;data-cfhash&quot;))return t[e]}();if(t&amp;&amp;t.previousSibling){var e,r,n,i,c=t.previousSibling,a=c.getAttribute(&quot;data-cfemail&quot;);if(a){for(e=&quot;&quot;,r=parseInt(a.substr(0,2),16),n=2;a.length-n;n+=2)i=parseInt(a.substr(n,2),16)^r,e+=String.fromCharCode(i);e=document.createTextNode(e),c.parentNode.replaceChild(e,c)}t.parentNode.removeChild(t);}}catch(u){}}()/* ]]&gt; */&lt;/script&gt;\nFormat settings, CABAC : Yes\nFormat settings, ReFrames : 5 frames\nCodec ID : avc1\nCodec ID/Info : Advanced Video Coding\nDuration : 1h 36mn\nBit rate : 750 Kbps\nMaximum bit rate : 3 330 Kbps\nWidth : 1 280 pixels\nHeight : 718 pixels\nDisplay aspect ratio : 16:9\nFrame rate mode : Constant\nFrame rate : 23.976 fps\nColor space : YUV\nChroma subsampling : 4:2:0\nBit depth : 8 bits\nScan type : Progressive\nBits/(Pixel*Frame) : 0.034\nStream size : 520 MiB (82%)\nWriting library : x264 core 142 r2431 ac76440\nEncoding settings : cabac=1 / ref=5 / deblock=1:-1:-1 / analyse=0x3:0x133 / me=umh / subme=9 / psy=1 / psy_rd=1.00:0.00 / mixed_ref=1 / me_range=24 / chroma_me=1 / trellis=2 / 8x8dct=1 / cqm=0 / deadzone=21,11 / fast_pskip=1 / chroma_qp_offset=-2 / threads=6 / lookahead_threads=1 / sliced_threads=0 / nr=0 / decimate=1 / interlaced=0 / bluray_compat=0 / constrained_intra=0 / bframes=3 / b_pyramid=2 / b_adapt=2 / b_bias=0 / direct=3 / weightb=1 / open_gop=0 / weightp=2 / keyint=240 / keyint_min=23 / scenecut=40 / intra_refresh=0 / rc_lookahead=60 / rc=2pass / mbtree=1 / bitrate=750 / ratetol=1.0 / qcomp=0.60 / qpmin=0 / qpmax=69 / qpstep=4 / cplxblur=20.0 / qblur=0.5 / vbv_maxrate=62500 / vbv_bufsize=78125 / nal_hrd=none / filler=0 / ip_ratio=1.40 / aq=1:1.00\nEncoded date : UTC 2015-02-25 09:04:23\nTagged date : UTC 2015-02-25 09:04:47\nColor primaries : BT.709\nMatrix coefficients : BT.709\nColor range : Limited\n\nAudio\nID : 2\nFormat : AAC\nFormat/Info : Advanced Audio Codec\nFormat profile : LC\nCodec ID : 40\nDuration : 1h 36mn\nBit rate mode : Variable\nBit rate : 157 Kbps\nMaximum bit rate : 255 Kbps\nChannel(s) : 2 channels\nChannel positions : Front: L R\nSampling rate : 48.0 KHz\nCompression mode : Lossy\nStream size : 108 MiB (17%)\nLanguage : English\nEncoded date : UTC 2015-02-25 09:04:38\nTagged date : UTC 2015-02-25 09:04:47\n\nMenu\n00:00:00.000 : 1\n00:04:05.000 : 2\n00:06:19.000 : 3\n00:10:22.000 : 4\n00:14:06.000 : 5\n00:17:19.000 : 6\n00:19:12.000 : 7\n00:22:40.000 : 8\n00:25:34.000 : 9\n00:29:16.000 : 10\n00:33:12.000 : 11\n00:35:07.000 : 12\n00:39:13.000 : 13\n00:43:07.000 : 14\n00:47:28.000 : 15\n00:52:11.000 : 16\n00:55:23.000 : 17\n01:00:10.000 : 18\n01:05:01.000 : 19\n01:07:46.000 : 20\n01:16:30.000 : 21\n01:26:31.000 : 22","torrent":{"xt":"urn:btih:b38188952318bd38b5a2b1f5587b55b6e387dc45","amp;dn":"Mean+Girls+2+2011+720p+WEB-DL+x264+SSloco","amp;tr":["udp%3A%2F%2Ftracker.openbittorrent.com%3A80","udp%3A%2F%2Fopen.demonii.com%3A1337","udp%3A%2F%2Ftracker.coppersurfer.tk%3A6969","udp%3A%2F%2Fexodus.desync.com%3A6969"],"infoHash":"b38188952318bd38b5a2b1f5587b55b6e387dc45","infoHashBuffer":{"type":"Buffer","data":[179,129,136,149,35,24,189,56,181,162,177,245,88,123,85,182,227,135,220,69]},"announce":[],"urlList":[]}}